<svg width="81" height="75" viewBox="0 0 81 75" fill="none" xmlns="http://www.w3.org/2000/svg">
<path d="M63.2939 18.7833L53.5375 4.6899C52.8144 3.64753 51.8533 2.7925 50.7338 2.19565C49.6144 1.5988 48.3688 1.27732 47.1003 1.25786L28.5851 0.992233H28.5469C18.9879 0.992233 11.6536 2.59113 6.92998 10.3944C2.53223 17.6579 0.65625 30.0309 0.65625 51.7656V54.4219H6.72528L2.81844 74.3438H8.23221L12.1391 54.4219H13.9375C18.2758 54.4606 22.4552 52.7914 25.5732 49.7748C28.392 47.0777 30.4252 43.3878 31.4533 39.1043L31.4626 39.0658L36.0186 17.2344H30.5915L26.2786 37.9013C24.9651 43.3267 21.0373 49.1094 13.9375 49.1094H5.97871C6.12298 30.3054 7.8351 19.157 11.4747 13.1447C14.5293 8.09787 18.9943 6.30639 28.5284 6.3039L47.0239 6.56953C47.4468 6.57596 47.862 6.6831 48.2351 6.88205C48.6083 7.08101 48.9287 7.36605 49.1697 7.71354L60.2061 23.6542L75.0312 26.1252V28.9406L72.5589 42.1258C71.8293 46.0173 70.582 47.9776 65.4671 48.5921L44.4983 52.1795L44.3597 74.3438H49.6722L49.7829 56.6642L66.1687 53.8586C69.8808 53.4022 72.6195 52.2059 74.5402 50.2024C76.1821 48.4895 77.1813 46.3011 77.7806 43.1049L80.3438 29.4344V21.6248L63.2939 18.7833Z" fill="white"/>
</svg>
